<?xml version="1.0" encoding="utf-8"?>
<!-- Generator: Adobe Illustrator 27.5.0, SVG Export Plug-In . SVG Version: 6.00 Build 0)  -->
<svg version="1.1" xmlns="http://www.w3.org/2000/svg" xmlns:xlink="http://www.w3.org/1999/xlink" x="0px" y="0px"
	 viewBox="0 0 1122 1122" style="enable-background:new 0 0 1122 1122;" xml:space="preserve">
<g id="Bg">
	<rect style="fill:#FFFFFF;" width="1122" height="1122"/>
</g>
<g id="Object">
	<g>
		<path style="fill:#616E7D;" d="M304.529,421.458c-13.999,0-25.315,11.329-25.315,25.319v287.376
			c0,13.971,11.317,25.319,25.315,25.319h512.93c13.981,0,25.328-11.348,25.328-25.319V446.776
			c0-13.989-11.348-25.319-25.328-25.319H612.863v25.667H509.131v-25.667H304.529z M808.732,462.23v256.768h-495.47V462.23H808.732z
			"/>
		<path style="fill:#FFFFFF;" d="M313.262,718.998h495.47V462.23h-495.47V718.998z M558.558,516.517h215.508v36.757H558.558V516.517
			z M558.558,575.256h215.508v14.603H558.558V575.256z M558.558,612.69h215.508v14.603H558.558V612.69z M558.558,650.11h215.508
			v14.6H558.558V650.11z M440.452,484.133c33.637,0,60.926,27.27,60.926,60.926c0,33.643-27.289,60.929-60.926,60.929
			c-33.644,0-60.932-27.286-60.932-60.929C379.52,511.403,406.808,484.133,440.452,484.133z M347.91,669.008
			c0-31.628,25.649-57.277,57.271-57.277h70.525c31.634,0,57.283,25.649,57.283,57.277v27.788H347.91V669.008z"/>
		<path style="fill:#616E7D;" d="M379.52,545.059c0,33.643,27.289,60.929,60.932,60.929c33.637,0,60.926-27.286,60.926-60.929
			c0-33.656-27.289-60.926-60.926-60.926C406.808,484.133,379.52,511.403,379.52,545.059z"/>
		<path style="fill:#616E7D;" d="M475.705,611.731H405.18c-31.622,0-57.271,25.649-57.271,57.277v27.788h185.078v-27.788
			C532.988,637.38,507.339,611.731,475.705,611.731z M460.781,689.321h-8.454h-28.481h-8.461l-13.133-68.984
			c1.295-0.094,2.572-0.188,3.885-0.188h63.886c1.319,0,2.603,0.094,3.897,0.188L460.781,689.321z"/>
		<polygon style="fill:#616E7D;" points="430.901,642.951 430.901,642.951 423.845,689.321 		"/>
		<path style="fill:#FFFFFF;" d="M445.263,642.951l7.063,46.371h8.454l13.139-68.984c-1.295-0.094-2.578-0.188-3.897-0.188h-63.886
			c-1.313,0-2.59,0.094-3.885,0.188l13.133,68.984h8.461l7.056-46.371l0,0h0.249l-6.924-12.745h27.712h0.005l-6.929,12.745H445.263z
			"/>
		<polygon style="fill:#AAD4C8;" points="423.845,689.321 452.326,689.321 445.263,642.951 445.015,642.951 451.944,630.205 
			451.939,630.205 424.226,630.205 431.15,642.951 430.901,642.951 		"/>
		<rect x="558.558" y="516.517" style="fill:#616E7D;" width="215.508" height="36.757"/>
		<rect x="558.558" y="575.256" style="fill:#82BFAB;" width="215.508" height="14.603"/>
		<rect x="558.558" y="612.69" style="fill:#82BFAB;" width="215.508" height="14.603"/>
		<rect x="558.558" y="650.11" style="fill:#82BFAB;" width="215.508" height="14.6"/>
		<polygon style="fill:#AAD4C8;" points="509.131,421.458 509.131,447.125 612.863,447.125 612.863,421.458 612.863,362.529 
			509.131,362.529 		"/>
	</g>
</g>
</svg>
